<?xml version="1.0" encoding="utf-8"?>
<!-- Generator: Adobe Illustrator 27.4.0, SVG Export Plug-In . SVG Version: 6.00 Build 0)  -->
<svg version="1.1" id="레이어_1" xmlns="http://www.w3.org/2000/svg" xmlns:xlink="http://www.w3.org/1999/xlink" x="0px"
	 y="0px" viewBox="0 0 364.19 87.27" style="enable-background:new 0 0 364.19 87.27;" xml:space="preserve">
<style type="text/css">
	.st0{fill:#040000;}
</style>
<g>
	<g>
		<path class="st0" d="M22.06,67.63c2.51,0,4.26-0.36,5.26-1.09c0.91-0.68,1.37-1.78,1.37-3.28V25.25c0-1.73-0.46-2.89-1.37-3.49
			c-0.91-0.59-2.67-0.89-5.26-0.89v-1.78h18.25v1.78c-2.92,0-4.88,0.3-5.88,0.89c-0.87,0.59-1.3,1.75-1.3,3.49v38.01
			c0,1.5,0.36,2.6,1.09,3.28c0.77,0.73,2.12,1.09,4.03,1.09h7.25c3.28,0,6.36-1,9.23-3.01c2.83-1.91,5.22-4.6,7.18-8.07l1.37,0.68
			l-5.13,12.17H22.06V67.63z"/>
		<path class="st0" d="M70.77,26.88h5.98v5.98h-5.98V26.88z M70.77,39.06h5.98v30.41h-5.98V39.06z"/>
		<path class="st0" d="M91.03,22.09c-0.29-0.1-1.1-0.15-2.42-0.15l-1.32,0.07c-0.64,0.05-1.15-0.27-1.54-0.95
			c-0.29-0.63-0.44-1.39-0.44-2.27s0.15-1.61,0.44-2.2c0.39-0.68,0.9-0.98,1.54-0.88c2.34,0.2,4.32,0.29,5.93,0.29
			c1.56,0,3.12-0.07,4.69-0.22c1.32-0.29,2.2-0.27,2.64,0.07c0.34,0.2,0.68,0.83,1.03,1.9l0.22,0.51l8.94,26.07
			c0.29,0.88,0.59,1.32,0.88,1.32s0.59-0.44,0.88-1.32l8.79-25.34l0.15-0.44c0.49-1.12,0.9-1.85,1.25-2.2
			c0.68-0.59,1.66-0.78,2.93-0.59c1.61,0.15,3.17,0.22,4.69,0.22c1.51,0,3.39-0.07,5.64-0.22c0.68-0.15,1.22,0.15,1.61,0.88
			c0.39,0.64,0.59,1.42,0.59,2.34c0,0.98-0.2,1.76-0.59,2.34c-0.39,0.64-0.93,0.88-1.61,0.73c-1.66-0.15-2.76-0.17-3.3-0.07
			c-0.68,0.15-1.03,0.56-1.03,1.25v38.53c0,0.93,0.32,1.49,0.95,1.68c0.49,0.1,1.54,0.05,3.15-0.15h0.22
			c0.68-0.19,1.22,0.03,1.61,0.66c0.39,0.59,0.59,1.34,0.59,2.27c0,0.88-0.2,1.64-0.59,2.27c-0.39,0.73-0.93,1.07-1.61,1.03
			c-2.69-0.15-5.3-0.22-7.84-0.22c-2.59,0-4.96,0.07-7.1,0.22c-0.73,0.05-1.29-0.27-1.68-0.95c-0.34-0.63-0.51-1.39-0.51-2.27
			c0-0.93,0.17-1.68,0.51-2.27c0.39-0.63,0.95-0.88,1.68-0.73c1.32,0.2,2.22,0.25,2.71,0.15c0.78-0.19,1.17-0.76,1.17-1.68V28.9
			l-6.52,18.38l-3.3,10.11c-0.64,1.9-1.81,2.86-3.52,2.86c-1.66,0-2.78-0.95-3.37-2.86l-3.59-10.25L98.43,28.9v32.89
			c0,0.73,0.32,1.22,0.95,1.46c0.63,0.25,1.61,0.27,2.93,0.07c0.68-0.15,1.25,0.12,1.68,0.81c0.39,0.59,0.59,1.34,0.59,2.27
			c0,0.93-0.2,1.68-0.59,2.27c-0.44,0.68-1,0.98-1.68,0.88c-1.66-0.24-3.88-0.37-6.67-0.37c-2.39,0-5.18,0.1-8.35,0.29
			c-0.64,0.1-1.15-0.17-1.54-0.81c-0.29-0.59-0.44-1.34-0.44-2.27c0-0.93,0.15-1.68,0.44-2.27c0.39-0.68,0.9-0.98,1.54-0.88
			c1.46,0.2,2.54,0.2,3.22,0c0.78-0.24,1.17-0.73,1.17-1.46V23.4C91.74,22.72,91.52,22.28,91.03,22.09z"/>
		<path class="st0" d="M163.92,18.98h5.49v15.64h2.37V21.44l1.23,0.75v12.44h11.6v5.49h-15.21V54.8h-5.49V43.72h-12.88l-0.79-1.23
			h13.67v-2.37h-15.12v-5.49h15.12V18.98z M173.02,43.72v15.64h-5.71l-0.97-1.01h5.45V42.49h15.38v-5.45l1.01,0.97v5.71H173.02z"/>
		<path class="st0" d="M199.7,50.87h2.42c1.34,3.86,2.96,7.1,4.85,9.72c1.89,2.62,3.96,4.57,6.19,5.84c2.23,1.27,4.57,1.9,7.01,1.9
			c3.05,0,5.66-0.95,7.84-2.86c2.17-1.9,3.26-4.35,3.26-7.32c0-2.78-0.72-4.95-2.16-6.5c-1.44-1.55-3.16-2.64-5.16-3.26
			c-2-0.62-4.64-1.2-7.91-1.74c-3.27-0.54-5.59-1.04-6.96-1.5c-2.12-0.73-3.93-1.74-5.42-3.02c-1.49-1.28-2.62-2.82-3.39-4.61
			c-0.77-1.79-1.15-3.72-1.15-5.77c0-1.95,0.34-3.83,1.03-5.64c0.68-1.81,1.65-3.41,2.89-4.8s2.76-2.49,4.56-3.3
			c1.79-0.81,3.79-1.21,5.99-1.21c1.59,0,3.53,0.23,5.84,0.68c2.31,0.45,3.99,0.68,5.04,0.68c1.32,0,2.56-0.29,3.74-0.88h2.78
			l1.57,15.05h-2.56c-2.39-4.49-4.9-7.92-7.53-10.27c-2.62-2.36-5.71-3.53-9.25-3.53c-1.76,0-3.39,0.41-4.91,1.23
			c-1.51,0.82-2.73,1.95-3.64,3.39c-0.92,1.44-1.37,3.03-1.37,4.76c0,2.44,0.83,4.31,2.49,5.6c1.66,1.29,4.12,2.27,7.38,2.93
			c3.26,0.66,6.18,1.22,8.75,1.68c2.58,0.46,4.62,1.06,6.13,1.79c2.78,1.37,4.94,3.26,6.48,5.68s2.31,5.15,2.31,8.2
			c0,2.93-0.71,5.66-2.12,8.2c-1.42,2.54-3.41,4.57-5.97,6.1c-2.56,1.53-5.42,2.29-8.57,2.29c-1.78,0-3.13-0.13-4.03-0.4
			c-0.9-0.27-2.45-0.79-4.65-1.57c-2.2-0.78-3.88-1.17-5.05-1.17c-1.95,0-3.5,0.75-4.65,2.23h-2.09V50.87z M200.91,27.47
			c-0.42,1.86-0.62,3.36-0.62,4.5c0,1.29,0.22,2.59,0.66,3.9s1.09,2.54,1.94,3.7c0.85,1.16,1.82,2.11,2.89,2.84
			c1.44,0.98,3.03,1.67,4.76,2.07c1.73,0.4,4.27,0.88,7.6,1.43c3.33,0.55,5.63,1.08,6.9,1.59c2.34,0.85,4.17,2.16,5.48,3.92
			c1.31,1.76,1.96,3.82,1.96,6.19c0,1.76-0.5,3.61-1.5,5.57c2-2.07,3-4.5,3-7.29c0-2.88-0.74-5.15-2.22-6.79
			c-1.48-1.65-3.31-2.87-5.49-3.66c-2.19-0.79-5.17-1.53-8.95-2.2c-3.78-0.67-5.73-1.02-5.82-1.04c-3.47-0.9-6.1-2.47-7.89-4.69
			c-1.79-2.22-2.69-4.78-2.69-7.69c0-0.54-0.01-0.99-0.02-1.35S200.89,27.76,200.91,27.47z M200.91,57.68v9.78
			c0.71-0.93,1.36-1.53,1.96-1.79c0.6-0.27,1.52-0.38,2.77-0.33c-0.81-0.95-1.39-1.65-1.74-2.11c-0.35-0.45-0.79-1.12-1.32-2.01
			S201.5,59.15,200.91,57.68z M228.52,27.18l-1.21-6.99c-0.81,0.27-1.61,0.4-2.42,0.4c-0.88,0-1.83-0.13-2.86-0.4
			c0.98,0.64,1.83,1.34,2.56,2.12c0.73,0.78,1.5,1.72,2.31,2.82S228.25,26.91,228.52,27.18z"/>
		<path class="st0" d="M281.15,33.99l2.29,1.65c0.04,1.02,0.04,2.18,0,3.49c0,0.8-0.02,1.99-0.06,3.55
			c-0.09,1.74-0.13,3.03-0.13,3.87c0,1.4,0.06,2.62,0.19,3.68v2.16c0.08,1.57,0.08,2.73,0,3.49c-0.13,1.27-0.4,2.41-0.83,3.43
			c-0.8,3.39-2.18,5.76-4.13,7.11c-2.24,1.52-6.12,2.52-11.62,2.98c-0.3-0.55-0.66-1.04-1.08-1.46c-0.42-0.34-0.78-0.53-1.08-0.57
			c-0.34-0.04-0.49,0.09-0.44,0.38c0,0.3,0.25,0.78,0.76,1.46c-2.92,0.09-5.35-0.13-7.3-0.63c-2.37-0.59-4.08-1.65-5.14-3.17
			l-0.38-1.21h-1.08c-0.13-0.55-0.3-0.99-0.51-1.33c-0.13-0.25-0.34-0.57-0.63-0.95c-0.59-0.72-1.02-1.42-1.27-2.09
			c-0.38-1.18-0.53-2.9-0.44-5.14c0.17-3.81,0.27-7.02,0.32-9.65c0.04-3.98-0.04-6.62-0.25-7.93c0.13-1.4,0.21-2.96,0.25-4.7
			c0.04-1.02,0.06-2.67,0.06-4.95l0.13-4.51c1.27,0.17,2.52,0.28,3.75,0.32c1.35,0.04,2.41,0,3.17-0.13c0,0.93-0.02,1.95-0.06,3.05
			c-0.04,0.63-0.11,1.59-0.19,2.86l-0.19,2.6c0.04,0.89,0.06,1.84,0.06,2.86c-0.04,0.63-0.11,1.55-0.19,2.73
			c-0.13,1.86-0.17,3.28-0.13,4.25c0.04,1.65,0.3,3.28,0.76,4.89l-1.02,2.29l0.25,1.33c0.08,0.59,0.13,1.25,0.13,1.97
			c0,0.42-0.02,1.04-0.06,1.84c-0.13,1.35-0.15,2.37-0.06,3.05c0.17,1.1,0.61,2.16,1.33,3.17c-0.59,0.21-0.93,0.55-1.02,1.02
			c-0.09,0.38,0.02,0.72,0.32,1.02c0.3,0.34,0.63,0.44,1.02,0.32c0.47-0.08,0.87-0.44,1.21-1.08l1.33,0.57
			c1.06,0.42,1.97,0.72,2.73,0.89c1.23,0.25,2.92,0.34,5.08,0.25c0.34-0.13,0.74-0.23,1.21-0.32c0.3-0.04,0.74-0.1,1.33-0.19
			c1.44-0.17,2.5-0.36,3.17-0.57c1.14-0.38,2.09-0.91,2.86-1.59l0.32-1.78c0.21-1.1,0.36-2.03,0.44-2.79
			c0.08-1.23,0.1-2.96,0.06-5.21l1.33-1.9l-1.46-0.32c0.13-3.13,0.17-6.33,0.13-9.58c-0.04-2.79-0.15-6.54-0.32-11.24
			c0.04-0.63,0-1.5-0.13-2.6c-0.13-0.93-0.23-1.61-0.32-2.03c1.56,0.13,3.05,0.19,4.44,0.19c1.61,0.04,2.77-0.02,3.49-0.19
			l0.13,1.52c0.17,1.65,0.25,2.92,0.25,3.81c0,1.4-0.13,3.01-0.38,4.82L281.15,33.99z M249.03,26.31c0.04,0.89,0.68,1.14,1.9,0.76
			c0.93-0.72,1.29-1.42,1.08-2.09c-0.25-0.68-0.72-0.91-1.4-0.7C249.51,24.74,248.99,25.42,249.03,26.31z M278.55,61.41
			c0.21,0.47,0.61,0.61,1.21,0.44c0.55,0,0.8-0.34,0.76-1.02c-0.04-0.68-0.36-0.89-0.95-0.63
			C278.63,60.55,278.29,60.95,278.55,61.41z"/>
		<path class="st0" d="M297.99,14.25h0.81l37.13,46.14v-45.7h2.2v55.08h-0.73L300.19,23.7v45.7h-2.2V14.25z"/>
	</g>
</g>
</svg>
