<svg version="1.1" id="레이어_1" xmlns="http://www.w3.org/2000/svg" x="0" y="0" viewBox="0 0 364.19 87.27" style="enable-background:new 0 0 364.19 87.27" xml:space="preserve"><style>.st0{fill:#040000}</style><path class="st0" d="M22.06 67.63c2.51 0 4.26-.36 5.26-1.09.91-.68 1.37-1.78 1.37-3.28V25.25c0-1.73-.46-2.89-1.37-3.49-.91-.59-2.67-.89-5.26-.89v-1.78h18.25v1.78c-2.92 0-4.88.3-5.88.89-.87.59-1.3 1.75-1.3 3.49v38.01c0 1.5.36 2.6 1.09 3.28.77.73 2.12 1.09 4.03 1.09h7.25c3.28 0 6.36-1 9.23-3.01 2.83-1.91 5.22-4.6 7.18-8.07l1.37.68-5.13 12.17H22.06v-1.77zM70.77 26.88h5.98v5.98h-5.98v-5.98zm0 12.18h5.98v30.41h-5.98V39.06zM91.03 22.09c-.29-.1-1.1-.15-2.42-.15l-1.32.07c-.64.05-1.15-.27-1.54-.95-.29-.63-.44-1.39-.44-2.27s.15-1.61.44-2.2c.39-.68.9-.98 1.54-.88 2.34.2 4.32.29 5.93.29 1.56 0 3.12-.07 4.69-.22 1.32-.29 2.2-.27 2.64.07.34.2.68.83 1.03 1.9l.22.51 8.94 26.07c.29.88.59 1.32.88 1.32s.59-.44.88-1.32l8.79-25.34.15-.44c.49-1.12.9-1.85 1.25-2.2.68-.59 1.66-.78 2.93-.59 1.61.15 3.17.22 4.69.22 1.51 0 3.39-.07 5.64-.22.68-.15 1.22.15 1.61.88.39.64.59 1.42.59 2.34 0 .98-.2 1.76-.59 2.34-.39.64-.93.88-1.61.73-1.66-.15-2.76-.17-3.3-.07-.68.15-1.03.56-1.03 1.25v38.53c0 .93.32 1.49.95 1.68.49.1 1.54.05 3.15-.15h.22c.68-.19 1.22.03 1.61.66.39.59.59 1.34.59 2.27 0 .88-.2 1.64-.59 2.27-.39.73-.93 1.07-1.61 1.03-2.69-.15-5.3-.22-7.84-.22-2.59 0-4.96.07-7.1.22-.73.05-1.29-.27-1.68-.95-.34-.63-.51-1.39-.51-2.27 0-.93.17-1.68.51-2.27.39-.63.95-.88 1.68-.73 1.32.2 2.22.25 2.71.15.78-.19 1.17-.76 1.17-1.68V28.9l-6.52 18.38-3.3 10.11c-.64 1.9-1.81 2.86-3.52 2.86-1.66 0-2.78-.95-3.37-2.86l-3.59-10.25-6.15-18.24v32.89c0 .73.32 1.22.95 1.46.63.25 1.61.27 2.93.07.68-.15 1.25.12 1.68.81.39.59.59 1.34.59 2.27 0 .93-.2 1.68-.59 2.27-.44.68-1 .98-1.68.88-1.66-.24-3.88-.37-6.67-.37-2.39 0-5.18.1-8.35.29-.64.1-1.15-.17-1.54-.81-.29-.59-.44-1.34-.44-2.27 0-.93.15-1.68.44-2.27.39-.68.9-.98 1.54-.88 1.46.2 2.54.2 3.22 0 .78-.24 1.17-.73 1.17-1.46V23.4c.06-.68-.16-1.12-.65-1.31zM163.92 18.98h5.49v15.64h2.37V21.44l1.23.75v12.44h11.6v5.49H169.4V54.8h-5.49V43.72h-12.88l-.79-1.23h13.67v-2.37h-15.12v-5.49h15.12V18.98zm9.1 24.74v15.64h-5.71l-.97-1.01h5.45V42.49h15.38v-5.45l1.01.97v5.71h-15.16zM199.7 50.87h2.42c1.34 3.86 2.96 7.1 4.85 9.72 1.89 2.62 3.96 4.57 6.19 5.84 2.23 1.27 4.57 1.9 7.01 1.9 3.05 0 5.66-.95 7.84-2.86 2.17-1.9 3.26-4.35 3.26-7.32 0-2.78-.72-4.95-2.16-6.5-1.44-1.55-3.16-2.64-5.16-3.26-2-.62-4.64-1.2-7.91-1.74-3.27-.54-5.59-1.04-6.96-1.5-2.12-.73-3.93-1.74-5.42-3.02a12.538 12.538 0 0 1-3.39-4.61c-.77-1.79-1.15-3.72-1.15-5.77 0-1.95.34-3.83 1.03-5.64.68-1.81 1.65-3.41 2.89-4.8s2.76-2.49 4.56-3.3c1.79-.81 3.79-1.21 5.99-1.21 1.59 0 3.53.23 5.84.68 2.31.45 3.99.68 5.04.68 1.32 0 2.56-.29 3.74-.88h2.78l1.57 15.05H230c-2.39-4.49-4.9-7.92-7.53-10.27-2.62-2.36-5.71-3.53-9.25-3.53-1.76 0-3.39.41-4.91 1.23a9.722 9.722 0 0 0-3.64 3.39c-.92 1.44-1.37 3.03-1.37 4.76 0 2.44.83 4.31 2.49 5.6 1.66 1.29 4.12 2.27 7.38 2.93 3.26.66 6.18 1.22 8.75 1.68 2.58.46 4.62 1.06 6.13 1.79 2.78 1.37 4.94 3.26 6.48 5.68s2.31 5.15 2.31 8.2c0 2.93-.71 5.66-2.12 8.2-1.42 2.54-3.41 4.57-5.97 6.1-2.56 1.53-5.42 2.29-8.57 2.29-1.78 0-3.13-.13-4.03-.4-.9-.27-2.45-.79-4.65-1.57s-3.88-1.17-5.05-1.17c-1.95 0-3.5.75-4.65 2.23h-2.09v-18.6zm1.21-23.4c-.42 1.86-.62 3.36-.62 4.5 0 1.29.22 2.59.66 3.9s1.09 2.54 1.94 3.7c.85 1.16 1.82 2.11 2.89 2.84 1.44.98 3.03 1.67 4.76 2.07 1.73.4 4.27.88 7.6 1.43 3.33.55 5.63 1.08 6.9 1.59 2.34.85 4.17 2.16 5.48 3.92 1.31 1.76 1.96 3.82 1.96 6.19 0 1.76-.5 3.61-1.5 5.57 2-2.07 3-4.5 3-7.29 0-2.88-.74-5.15-2.22-6.79-1.48-1.65-3.31-2.87-5.49-3.66-2.19-.79-5.17-1.53-8.95-2.2-3.78-.67-5.73-1.02-5.82-1.04-3.47-.9-6.1-2.47-7.89-4.69s-2.69-4.78-2.69-7.69c0-.54-.01-.99-.02-1.35s-.01-.71.01-1zm0 30.21v9.78c.71-.93 1.36-1.53 1.96-1.79.6-.27 1.52-.38 2.77-.33-.81-.95-1.39-1.65-1.74-2.11-.35-.45-.79-1.12-1.32-2.01s-1.08-2.07-1.67-3.54zm27.61-30.5-1.21-6.99c-.81.27-1.61.4-2.42.4-.88 0-1.83-.13-2.86-.4.98.64 1.83 1.34 2.56 2.12s1.5 1.72 2.31 2.82 1.35 1.78 1.62 2.05zM281.15 33.99l2.29 1.65c.04 1.02.04 2.18 0 3.49 0 .8-.02 1.99-.06 3.55-.09 1.74-.13 3.03-.13 3.87 0 1.4.06 2.62.19 3.68v2.16c.08 1.57.08 2.73 0 3.49-.13 1.27-.4 2.41-.83 3.43-.8 3.39-2.18 5.76-4.13 7.11-2.24 1.52-6.12 2.52-11.62 2.98-.3-.55-.66-1.04-1.08-1.46-.42-.34-.78-.53-1.08-.57-.34-.04-.49.09-.44.38 0 .3.25.78.76 1.46-2.92.09-5.35-.13-7.3-.63-2.37-.59-4.08-1.65-5.14-3.17l-.38-1.21h-1.08c-.13-.55-.3-.99-.51-1.33-.13-.25-.34-.57-.63-.95-.59-.72-1.02-1.42-1.27-2.09-.38-1.18-.53-2.9-.44-5.14.17-3.81.27-7.02.32-9.65.04-3.98-.04-6.62-.25-7.93.13-1.4.21-2.96.25-4.7.04-1.02.06-2.67.06-4.95l.13-4.51c1.27.17 2.52.28 3.75.32 1.35.04 2.41 0 3.17-.13 0 .93-.02 1.95-.06 3.05-.04.63-.11 1.59-.19 2.86l-.19 2.6c.04.89.06 1.84.06 2.86-.04.63-.11 1.55-.19 2.73-.13 1.86-.17 3.28-.13 4.25.04 1.65.3 3.28.76 4.89l-1.02 2.29.25 1.33c.08.59.13 1.25.13 1.97 0 .42-.02 1.04-.06 1.84-.13 1.35-.15 2.37-.06 3.05.17 1.1.61 2.16 1.33 3.17-.59.21-.93.55-1.02 1.02-.09.38.02.72.32 1.02.3.34.63.44 1.02.32.47-.08.87-.44 1.21-1.08l1.33.57c1.06.42 1.97.72 2.73.89 1.23.25 2.92.34 5.08.25.34-.13.74-.23 1.21-.32.3-.04.74-.1 1.33-.19 1.44-.17 2.5-.36 3.17-.57 1.14-.38 2.09-.91 2.86-1.59l.32-1.78c.21-1.1.36-2.03.44-2.79.08-1.23.1-2.96.06-5.21l1.33-1.9-1.46-.32c.13-3.13.17-6.33.13-9.58-.04-2.79-.15-6.54-.32-11.24.04-.63 0-1.5-.13-2.6-.13-.93-.23-1.61-.32-2.03 1.56.13 3.05.19 4.44.19 1.61.04 2.77-.02 3.49-.19l.13 1.52c.17 1.65.25 2.92.25 3.81 0 1.4-.13 3.01-.38 4.82l-2.4.94zm-32.12-7.68c.04.89.68 1.14 1.9.76.93-.72 1.29-1.42 1.08-2.09-.25-.68-.72-.91-1.4-.7-1.1.46-1.62 1.14-1.58 2.03zm29.52 35.1c.21.47.61.61 1.21.44.55 0 .8-.34.76-1.02-.04-.68-.36-.89-.95-.63-.94.35-1.28.75-1.02 1.21zM297.99 14.25h.81l37.13 46.14v-45.7h2.2v55.08h-.73L300.19 23.7v45.7h-2.2V14.25z"/></svg>